<?xml version="1.0" standalone="no"?>
<!DOCTYPE svg PUBLIC "-//W3C//DTD SVG 20010904//EN"
 "http://www.w3.org/TR/2001/REC-SVG-20010904/DTD/svg10.dtd">
<svg version="1.0" xmlns="http://www.w3.org/2000/svg"
 width="160.000000pt" height="160.000000pt" viewBox="0 0 160.000000 160.000000"
 preserveAspectRatio="xMidYMid meet">
<metadata>
Created by potrace 1.14, written by Peter Selinger 2001-2017
</metadata>
<g transform="translate(0.000000,160.000000) scale(0.100000,-0.100000)"
fill="#000000" stroke="none">
<path d="M602 1101 l3 -189 30 -43 c42 -60 84 -83 173 -94 12 -1 45 8 73 21
115 53 128 106 120 462 l-1 32 -200 0 -200 0 2 -189z"/>
<path d="M205 670 c-3 -5 -2 -10 3 -10 9 0 32 -43 32 -60 0 -5 -7 -7 -15 -4
-8 4 -15 2 -15 -4 0 -13 24 -22 37 -14 10 7 53 85 53 97 0 15 -21 2 -33 -21
l-13 -25 -14 25 c-14 28 -25 32 -35 16z"/>
<path d="M320 631 c0 -28 5 -53 10 -56 10 -6 14 7 11 33 -1 7 9 12 24 12 18 0
25 -5 25 -20 0 -11 5 -20 10 -20 6 0 10 23 10 50 0 28 -4 50 -10 50 -5 0 -10
-9 -10 -20 0 -15 -7 -20 -25 -20 -18 0 -25 5 -25 20 0 11 -4 20 -10 20 -5 0
-10 -22 -10 -49z"/>
<path d="M437 674 c-3 -4 -3 -12 1 -18 4 -6 7 -24 7 -41 0 -42 26 -44 45 -3
l15 33 3 -30 c3 -29 21 -59 23 -39 6 50 4 96 -4 101 -6 3 -22 -9 -37 -27 l-26
-32 0 28 c1 26 -13 41 -27 28z"/>
<path d="M568 633 c-3 -27 -3 -51 -2 -54 2 -3 20 -3 41 0 37 6 38 8 38 46 0
45 -8 55 -46 55 -25 0 -27 -4 -31 -47z m57 17 c3 -5 -3 -10 -14 -10 -12 0 -21
5 -21 10 0 6 6 10 14 10 8 0 18 -4 21 -10z m5 -40 c0 -5 -9 -10 -20 -10 -11 0
-20 5 -20 10 0 6 9 10 20 10 11 0 20 -4 20 -10z"/>
<path d="M675 671 c-3 -5 -1 -12 4 -16 6 -3 8 -21 6 -39 -4 -29 -1 -34 18 -38
27 -5 47 0 47 13 0 5 -12 9 -26 9 -14 0 -23 4 -19 10 3 6 17 10 31 10 14 0 22
4 19 10 -3 6 -17 10 -31 10 -14 0 -22 4 -19 10 3 6 17 10 31 10 14 0 22 4 19
10 -8 13 -72 13 -80 1z"/>
<path d="M788 648 c-6 -37 0 -68 13 -68 5 0 9 7 9 15 0 8 5 16 10 16 6 1 15 2
21 3 7 0 17 8 22 18 15 23 -8 48 -43 48 -24 0 -28 -5 -32 -32z m53 -2 c-1 -16
-31 -15 -31 1 0 8 7 13 16 11 8 -2 15 -7 15 -12z"/>
<path d="M908 668 c-32 -26 -27 -67 10 -87 21 -11 66 4 57 19 -5 8 -11 8 -19
1 -18 -15 -49 10 -44 35 3 15 11 18 37 16 29 -2 32 0 21 13 -15 18 -41 19 -62
3z"/>
<path d="M1001 630 c3 -58 15 -63 47 -17 l22 32 0 -33 c0 -20 5 -32 14 -32 10
0 12 11 8 48 -2 26 -7 49 -9 52 -3 3 -15 -7 -28 -22 -26 -30 -37 -35 -34 -15
3 24 -1 37 -11 37 -7 0 -10 -20 -9 -50z"/>
<path d="M1116 671 c-3 -5 3 -11 13 -14 14 -3 18 -12 16 -35 -3 -41 12 -64 20
-31 3 14 5 29 4 35 -4 22 2 34 18 34 28 0 5 13 -31 17 -19 2 -37 -1 -40 -6z"/>
<path d="M1222 659 c-9 -23 -4 -78 7 -80 43 -5 61 -3 61 9 0 7 -4 11 -9 8 -4
-3 -17 1 -27 9 -18 14 -18 14 9 15 15 0 27 5 27 10 0 6 -12 10 -26 10 -14 0
-23 4 -19 10 3 6 17 10 31 10 35 0 22 15 -15 18 -24 2 -33 -3 -39 -19z"/>
<path d="M1327 661 c16 -12 20 -24 17 -48 -3 -27 0 -33 16 -33 16 0 18 4 11
23 -8 22 -1 59 12 58 4 -1 8 2 10 7 1 4 -18 8 -42 8 -43 2 -44 1 -24 -15z"/>
<path d="M383 523 c-19 -7 -15 -23 5 -23 14 0 18 -8 18 -32 -1 -18 4 -33 9
-33 6 0 10 15 10 33 0 19 5 32 12 32 7 0 13 6 13 13 0 12 -42 18 -67 10z"/>
<path d="M479 478 c-14 -44 -10 -75 6 -48 8 13 55 13 55 0 0 -5 5 -10 11 -10
21 0 -16 96 -39 102 -13 4 -21 -7 -33 -44z m40 -17 c-15 -5 -22 6 -14 19 6 9
10 9 16 -1 5 -8 4 -15 -2 -18z"/>
<path d="M594 521 c-2 -2 -1 -14 2 -27 3 -12 0 -32 -6 -44 -6 -12 -9 -25 -5
-28 10 -11 35 29 35 56 0 17 5 23 18 20 13 -2 16 -11 14 -35 -2 -17 1 -34 7
-38 6 -3 11 0 12 7 0 7 2 28 3 46 1 18 -2 36 -7 39 -12 7 -67 10 -73 4z"/>
<path d="M726 495 c-8 -19 -19 -35 -25 -35 -5 0 -7 -9 -4 -20 6 -24 7 -24 33
-8 16 10 24 10 39 1 28 -17 30 -8 12 42 -20 58 -37 64 -55 20z m34 -20 c0 -8
-4 -15 -10 -15 -5 0 -10 7 -10 15 0 8 5 15 10 15 6 0 10 -7 10 -15z"/>
<path d="M810 521 c0 -4 3 -11 7 -14 4 -4 7 -24 7 -44 1 -20 6 -38 12 -40 7
-2 11 6 10 19 -1 32 38 32 42 1 7 -45 22 -22 22 33 0 34 -4 53 -10 49 -5 -3
-10 -12 -10 -20 0 -18 -32 -29 -41 -13 -4 6 -6 15 -3 19 2 4 -5 9 -16 12 -11
3 -20 2 -20 -2z"/>
<path d="M939 519 c-11 -6 -10 -9 4 -15 12 -4 17 -17 17 -45 0 -27 4 -39 14
-39 11 0 14 10 10 40 -4 35 -2 40 16 40 24 0 27 20 3 21 -10 0 -25 2 -34 4 -9
1 -22 -1 -30 -6z"/>
<path d="M1054 520 c-30 -11 -37 -57 -13 -81 25 -25 51 -24 74 1 36 40 -10 99
-61 80z m45 -62 c-14 -27 -43 -18 -47 14 -2 19 2 27 15 30 26 6 45 -20 32 -44z"/>
<path d="M1157 522 c-12 -2 -16 -9 -13 -19 3 -8 6 -30 6 -49 0 -33 1 -33 38
-30 37 3 37 3 37 46 0 38 -3 44 -25 50 -14 3 -33 4 -43 2z m45 -34 c-12 -12
-35 -1 -27 12 3 5 13 6 21 3 10 -4 12 -9 6 -15z m5 -44 c-3 -4 -14 -3 -24 0
-15 6 -15 8 -3 16 16 10 39 -4 27 -16z"/>
<path d="M580 330 c0 -9 6 -17 14 -17 8 0 14 8 13 17 0 9 -7 17 -14 17 -7 0
-13 -8 -13 -17z"/>
<path d="M667 343 c-14 -13 -7 -29 13 -30 11 -1 20 2 20 8 0 5 -8 9 -17 9 -15
0 -16 2 -3 10 8 5 10 10 4 10 -6 0 -14 -3 -17 -7z"/>
<path d="M749 341 c8 -5 10 -14 6 -21 -5 -8 -3 -11 5 -8 23 7 20 38 -3 38 -17
0 -19 -2 -8 -9z"/>
<path d="M835 340 c3 -5 1 -10 -4 -10 -20 0 -11 -16 9 -17 11 -1 20 0 20 2 0
13 -14 35 -22 35 -5 0 -6 -4 -3 -10z"/>
<path d="M909 345 c0 0 -2 -8 -4 -18 -3 -15 -1 -16 11 -6 11 9 14 9 14 -1 0
-16 13 -5 16 13 1 9 -25 18 -37 12z"/>
<path d="M990 330 c0 -11 7 -20 15 -20 8 0 15 6 15 14 0 8 -7 16 -15 20 -10 4
-15 -1 -15 -14z"/>
</g>
</svg>
